{
  "accessors": [
    {
      "bufferView": 1,
      "componentType": 5126,
      "count": 3070,
      "max": [
        99,
        23,
        60
      ],
      "min": [
        18,
        -25,
        -61
      ],
      "type": "VEC3"
    },
    {
      "bufferView": 1,
      "byteOffset": 36840,
      "componentType": 5126,
      "count": 3070,
      "max": [
        1,
        1,
        1
      ],
      "min": [
        -1,
        -1,
        -1
      ],
      "type": "VEC3"
    },
    {
      "bufferView": 0,
      "componentType": 5125,
      "count": 18360,
      "max": [
        3069
      ],
      "min": [
        0
      ],
      "type": "SCALAR"
    },
    {
      "bufferView": 1,
      "byteOffset": 73680,
      "componentType": 5126,
      "count": 3070,
      "max": [
        61,
        23,
        97
      ],
      "min": [
        -60,
        -25,
        17
      ],
      "type": "VEC3"
    },
    {
      "bufferView": 1,
      "byteOffset": 110520,
      "componentType": 5126,
      "count": 3070,
      "max": [
        1,
        1,
        1
      ],
      "min": [
        -1,
        -1,
        -1
      ],
      "type": "VEC3"
    },
    {
      "bufferView": 0,
      "byteOffset": 73440,
      "componentType": 5125,
      "count": 18360,
      "max": [
        3069
      ],
      "min": [
        0
      ],
      "type": "SCALAR"
    },
    {
      "bufferView": 1,
      "byteOffset": 147360,
      "componentType": 5126,
      "count": 3070,
      "max": [
        61,
        23,
        -18
      ],
      "min": [
        -59,
        -25,
        -98
      ],
      "type": "VEC3"
    },
    {
      "bufferView": 1,
      "byteOffset": 184200,
      "componentType": 5126,
      "count": 3070,
      "max": [
        1,
        1,
        1
      ],
      "min": [
        -1,
        -1,
        -1
      ],
      "type": "VEC3"
    },
    {
      "bufferView": 0,
      "byteOffset": 146880,
      "componentType": 5125,
      "count": 18360,
      "max": [
        3069
      ],
      "min": [
        0
      ],
      "type": "SCALAR"
    },
    {
      "bufferView": 1,
      "byteOffset": 221040,
      "componentType": 5126,
      "count": 3070,
      "max": [
        -17,
        23,
        60
      ],
      "min": [
        -97,
        -25,
        -61
      ],
      "type": "VEC3"
    },
    {
      "bufferView": 1,
      "byteOffset": 257880,
      "componentType": 5126,
      "count": 3070,
      "max": [
        1,
        1,
        1
      ],
      "min": [
        -1,
        -1,
        -1
      ],
      "type": "VEC3"
    },
    {
      "bufferView": 0,
      "byteOffset": 220320,
      "componentType": 5125,
      "count": 18360,
      "max": [
        3069
      ],
      "min": [
        0
      ],
      "type": "SCALAR"
    }
  ],
  "asset": {
    "extras": {
      "author": "makeademic (https://sketchfab.com/makeademic)",
      "license": "CC-BY-4.0 (http://creativecommons.org/licenses/by/4.0/)",
      "source": "https://sketchfab.com/3d-models/16-spheres-afb0e84ae0554317869dd0c6dcf30258",
      "title": "16 spheres"
    },
    "generator": "Sketchfab-9.54.0",
    "version": "2.0"
  },
  "bufferViews": [
    {
      "buffer": 0,
      "byteLength": 293760,
      "byteOffset": 0,
      "name": "floatBufferViews",
      "target": 34963
    },
    {
      "buffer": 0,
      "byteLength": 294720,
      "byteOffset": 293760,
      "byteStride": 12,
      "name": "floatBufferViews",
      "target": 34962
    }
  ],
  "buffers": [
    {
      "byteLength": 588480,
      "uri": "scene.bin"
    }
  ],
  "materials": [
    {
      "doubleSided": true,
      "emissiveFactor": [
        0,
        0,
        0
      ],
      "name": "color_15058986",
      "pbrMetallicRoughness": {
        "baseColorFactor": [
          0.89803900000000003,
          0.78431399999999996,
          0.16470599999999999,
          1
        ],
        "metallicFactor": 0,
        "roughnessFactor": 1
      }
    },
    {
      "doubleSided": true,
      "emissiveFactor": [
        0,
        0,
        0
      ],
      "name": "color_5352107",
      "pbrMetallicRoughness": {
        "baseColorFactor": [
          0.31764700000000001,
          0.66666700000000001,
          0.67058799999999996,
          1
        ],
        "metallicFactor": 0,
        "roughnessFactor": 1
      }
    },
    {
      "doubleSided": true,
      "emissiveFactor": [
        0,
        0,
        0
      ],
      "name": "color_7572823",
      "pbrMetallicRoughness": {
        "baseColorFactor": [
          0.45097999999999999,
          0.55294100000000002,
          0.34117599999999998,
          1
        ],
        "metallicFactor": 0,
        "roughnessFactor": 1
      }
    },
    {
      "doubleSided": true,
      "emissiveFactor": [
        0,
        0,
        0
      ],
      "name": "color_7621984",
      "pbrMetallicRoughness": {
        "baseColorFactor": [
          0.45490199999999997,
          0.30196099999999998,
          0.376471,
          1
        ],
        "metallicFactor": 0,
        "roughnessFactor": 1
      }
    }
  ],
  "meshes": [
    {
      "primitives": [
        {
          "attributes": {
            "NORMAL": 1,
            "POSITION": 0
          },
          "indices": 2,
          "material": 0,
          "mode": 4
        }
      ]
    },
    {
      "primitives": [
        {
          "attributes": {
            "NORMAL": 4,
            "POSITION": 3
          },
          "indices": 5,
          "material": 1,
          "mode": 4
        }
      ]
    },
    {
      "primitives": [
        {
          "attributes": {
            "NORMAL": 7,
            "POSITION": 6
          },
          "indices": 8,
          "material": 2,
          "mode": 4
        }
      ]
    },
    {
      "primitives": [
        {
          "attributes": {
            "NORMAL": 10,
            "POSITION": 9
          },
          "indices": 11,
          "material": 3,
          "mode": 4
        }
      ]
    }
  ],
  "nodes": [
    {
      "children": [
        1
      ],
      "name": "RootNode (gltf orientation matrix)",
      "rotation": [
        -0.70710678118654746,
        -0,
        -0,
        0.70710678118654757
      ]
    },
    {
      "children": [
        2
      ],
      "name": "RootNode (model correction matrix)"
    },
    {
      "children": [
        3,
        4,
        5,
        6
      ],
      "name": "tinker.obj.cleaner.materialmerger.gles"
    },
    {
      "mesh": 0,
      "name": ""
    },
    {
      "mesh": 1,
      "name": ""
    },
    {
      "mesh": 2,
      "name": ""
    },
    {
      "mesh": 3,
      "name": ""
    }
  ],
  "scene": 0,
  "scenes": [
    {
      "name": "OSG_Scene",
      "nodes": [
        0
      ]
    }
  ]
}

